<svg xmlns="http://www.w3.org/2000/svg" viewBox="0 0 800 600"><defs><linearGradient id="b" x1="0" y1="0" x2="1" y2="1"><stop stop-color="#f7dfaa"/><stop offset="1" stop-color="#b8752c"/></linearGradient></defs><rect width="800" height="600" rx="36" fill="#f4efe4"/><ellipse cx="400" cy="485" rx="260" ry="42" fill="#d9cdb9"/><path d="M170 290 Q400 250 630 290 L585 455 Q400 540 215 455Z" fill="url(#b)" stroke="#7b4a22" stroke-width="10"/><ellipse cx="400" cy="292" rx="230" ry="72" fill="#f5e3bb" stroke="#7b4a22" stroke-width="10"/>
<g><circle cx="290" cy="278" r="35" fill="#f1c95b"/><circle cx="370" cy="255" r="30" fill="#d84c58"/><circle cx="455" cy="282" r="32" fill="#e8b85b"/><circle cx="535" cy="255" r="30" fill="#bd3b47"/><path d="M320 240q20-38 48 0" fill="none" stroke="#d6a33b" stroke-width="18"/><path d="M425 230q24-45 52 0" fill="none" stroke="#9b6332" stroke-width="18"/><g fill="#8b5a32"><ellipse cx="270" cy="335" rx="16" ry="9"/><ellipse cx="330" cy="330" rx="16" ry="9"/><ellipse cx="390" cy="345" rx="16" ry="9"/><ellipse cx="455" cy="330" rx="16" ry="9"/><ellipse cx="520" cy="340" rx="16" ry="9"/></g><g fill="#e2b84c"><circle cx="300" cy="365" r="8"/><circle cx="420" cy="370" r="8"/><circle cx="560" cy="320" r="8"/></g><g fill="#6f9b55"><path d="M240 300q35-35 55 0q-30 30-55 0"/><path d="M500 300q35-35 55 0q-30 30-55 0"/></g></g><text x="400" y="565" text-anchor="middle" font-family="Arial" font-size="20" fill="#244b37" letter-spacing="3">OATS • FRUIT • NUTS • SEEDS • PEANUT BUTTER • HONEY</text></svg>