<svg xmlns="http://www.w3.org/2000/svg" viewBox="0 0 800 600"><rect width="800" height="600" rx="36" fill="#f1eee5"/><path d="M205 175 L585 230 L555 420 L175 365Z" fill="#c99555" stroke="#70451f" stroke-width="12"/><path d="M205 205 L570 257 L545 300 L190 250Z" fill="#d9b979"/><path d="M190 265 L545 315 L525 355 L180 305Z" fill="#b87932"/><path d="M180 315 L525 365 L505 405 L170 355Z" fill="#e7c27c"/><path d="M205 175 L585 230 L570 257 L205 205Z" fill="#f0d59d"/><g fill="#e1b54e"><circle cx="295" cy="222" r="7"/><circle cx="350" cy="230" r="7"/><circle cx="450" cy="245" r="7"/></g><g fill="#e2a24e"><circle cx="300" cy="340" r="9"/><circle cx="400" cy="355" r="9"/><circle cx="470" cy="365" r="9"/></g><g fill="#754b2a"><ellipse cx="350" cy="285" rx="18" ry="8"/><ellipse cx="425" cy="300" rx="18" ry="8"/></g><path d="M250 190q30-25 60 0" fill="none" stroke="#b66f34" stroke-width="20"/><path d="M505 230q30-25 60 0" fill="none" stroke="#b66f34" stroke-width="20"/><text x="400" y="545" text-anchor="middle" font-family="Arial" font-size="18" fill="#244b37" letter-spacing="2">WHOLE WHEAT • PEANUT BUTTER • BANANA • DATES • SEEDS • HONEY</text></svg>